<svg width="240" height="80" viewBox="0 0 240 80" xmlns="http://www.w3.org/2000/svg">
  <defs>
    <linearGradient id="sparkGradient" x1="0%" y1="0%" x2="100%" y2="100%">
      <stop offset="0%" stop-color="#6b38d4" />
      <stop offset="100%" stop-color="#fd56a7" />
    </linearGradient>
  </defs>
  
  <g transform="translate(10, 10)">
    <!-- Main Sparkle -->
    <path d="M 30 0 C 30 20 20 30 0 30 C 20 30 30 40 30 60 C 30 40 40 30 60 30 C 40 30 30 20 30 0 Z" fill="url(#sparkGradient)" />
    <!-- Secondary Sparkle -->
    <path d="M 50 5 C 50 12 47 15 40 15 C 47 15 50 18 50 25 C 50 18 53 15 60 15 C 53 15 50 12 50 5 Z" fill="#b4136d" opacity="0.8" />
  </g>
  
  <!-- Spark Text -->
  <text x="85" y="52" font-family="'Plus Jakarta Sans', -apple-system, BlinkMacSystemFont, 'Segoe UI', Roboto, Helvetica, Arial, sans-serif" font-size="38" font-weight="800" fill="#1d1a23" letter-spacing="-1">Spark</text>
</svg>
